Simulation
nRows=48
nColumns=15
endheader
time  TH_x TH_y TH_z SC_y  SC_z  SC_x  AC_y  AC_z  AC_x  GH_y  GH_z  GH_yy  EL_x  PS_y
1.25  0.000000  0.000000  0.000000  -35.32771074812887  6.585872881587883  20.59368566339569  70.59638260617078  13.59227825109606  -2.685331780206404  -4.913397346335268  61.65812966339306  -15.274204902767956  23.6433276696716  120.000000
1.2750000000000001  0.000000  0.000000  0.000000  -35.54826842080703  6.717085416129468  20.95406232770387  70.69139227579228  13.61467501334821  -2.4844412723520315  -5.021548806726551  61.919503888358925  -15.88299990257162  23.580762648713602  120.000000
1.3  0.000000  0.000000  0.000000  -35.765438303502826  6.840504422923259  21.301714988421722  70.7749805345825  13.63203507335727  -2.298118511653861  -5.108014331338051  62.12561714497665  -16.444764942775638  23.540746433617283  120.000000
1.3250000000000002  0.000000  0.000000  0.000000  -35.97491275639765  6.954228839875916  21.6324159602749  70.84425963429806  13.642133127772436  -2.132072110495391  -5.171695842896379  62.28197281204222  -16.945100270481372  23.517439188732162  120.000000
1.35  0.000000  0.000000  0.000000  -36.17095536530259  7.056124836826594  21.94102984651059  70.89800417414665  13.642186959884624  -1.991219832162197  -5.213209155443591  62.39450017160948  -17.371650459177875  23.50483653288627  120.000000
1.375  0.000000  0.000000  0.000000  -36.34762074440775  7.144143357335356  22.22226257795314  70.93660148110858  13.629377783849792  -1.879486555110206  -5.234632072187058  62.46820284316302  -17.71547519598697  23.496995517604926  120.000000
1.4000000000000001  0.000000  0.000000  0.000000  -36.49845949387401  7.2162538137128625  22.47025757662674  70.96184600070691  13.600985521169404  -1.7996428438785963  -5.238975678115639  62.507562123240014  -17.971492317417663  23.48850644156252  120.000000
1.425  0.000000  0.000000  0.000000  -36.61821237133064  7.270735100917228  22.679686409116165  70.9763379473293  13.555016414328692  -1.7533912460466061  -5.229345743830316  62.51505316239062  -18.13865309885084  23.47495220818188  120.000000
1.4500000000000002  0.000000  0.000000  0.000000  -36.70243572871586  7.305981243095654  22.8454630643281  70.98302626628312  13.490442587102619  -1.7414607155036483  -5.208255233094105  62.491489220246926  -18.22013881821919  23.453633322352776  120.000000
1.475  0.000000  0.000000  0.000000  -36.74917640104991  7.320721319283785  22.964017449668887  70.98475921938206  13.407545631141117  -1.7637292568771312  -5.176934736072439  62.43472700741021  -18.22271310610775  23.424016907307973  120.000000
1.5  0.000000  0.000000  0.000000  -36.75785042116608  7.313772560971039  23.032637616037416  70.98398177474742  13.307936553821815  -1.8193293533829655  -5.1351648982417455  62.34057498527475  -18.156435665702276  23.387979448945146  120.000000
1.5250000000000001  0.000000  0.000000  0.000000  -36.73046764144237  7.284383122298027  23.050475268912425  70.9827598111117  13.194223469346122  -1.906621280105924  -5.081224455025907  62.202325359657195  -18.032937349853533  23.349302611794155  120.000000
1.55  0.000000  0.000000  0.000000  -36.66972096540584  7.23204282376302  23.017218846362347  70.98269424840669  13.069719354112708  -2.023234340673694  -5.012387290503352  62.01252412608912  -17.86440687903843  23.31299639216191  120.000000
1.5750000000000002  0.000000  0.000000  0.000000  -36.579945461180316  7.156891455298826  22.933870319323393  70.98520943126267  12.937768517779435  -2.1659953303897255  -4.925293104448467  61.76294625563645  -17.66154043359474  23.284372077991737  120.000000
1.6  0.000000  0.000000  0.000000  -36.46506013746857  7.059432265373621  22.801159611722678  70.99150995452644  12.801542165558772  -2.331066208633155  -4.81662040938049  61.44655864098339  -17.432639669346738  23.268449659271734  120.000000
1.625  0.000000  0.000000  0.000000  -36.32959727685145  6.9408350473445815  22.620388374414933  71.0028410401229  12.663552298803102  -2.514040045886003  -4.6834215814802524  61.057208714662664  -17.182684095164877  23.2693379114231  120.000000
1.6500000000000001  0.000000  0.000000  0.000000  -36.176939677679236  6.802320146248405  22.391997234164158  71.0203865195946  12.525726072759829  -2.7102496623092525  -4.52361077137925  60.59120283861733  -16.913641753504166  23.290005670679815  120.000000
1.675  0.000000  0.000000  0.000000  -36.010544968884915  6.645278603240788  22.116624861148964  71.04536065337707  12.38928583374973  -2.915073472482195  -4.336004415386911  60.04646358172905  -16.625078742760177  23.331935808846584  120.000000
1.7000000000000002  0.000000  0.000000  0.000000  -35.832523881954415  6.470650221022621  21.793913478433076  71.07883120597026  12.25497090366423  -3.1243350547652757  -4.1205222017453815  59.42377594234117  -16.315224268660366  23.394841825040906  120.000000
1.725  0.000000  0.000000  0.000000  -35.64495306324578  6.279067827479214  21.4236773362204  71.12163823797974  12.123034573836044  -3.33459273993774  -3.877930113925676  58.72567141106215  -15.98183086895143  23.476206079035382  120.000000
1.75  0.000000  0.000000  0.000000  -35.44867715336986  6.070520193068275  21.0047403342436  71.17414581292691  11.993284637250666  -3.5433738679367335  -3.6098145367835923  57.957365860218346  -15.62285962131124  23.571114637491444  120.000000
1.7750000000000001  0.000000  0.000000  0.000000  -35.244671833665684  5.8445073142412145  20.53617011923824  71.23594505006741  11.865097415628389  -3.749043322711918  -3.3182323769408173  57.125341676531534  -15.236507670515142  23.67247509189482  120.000000
1.8  0.000000  0.000000  0.000000  -35.032779571465106  5.600156638055412  20.01650588626921  71.30571988080885  11.737716974905226  -3.9505314258366537  -3.0054028484074977  56.238151623502866  -14.82101836447792  23.772015098591485  120.000000
1.8250000000000002  0.000000  0.000000  0.000000  -34.81280841955355  5.3369072684779715  19.445391257946948  71.3813114293603  11.610495718020177  -4.1472210881117215  -2.6733624106791223  55.30488548132381  -14.373880670484812  23.861413148361674  120.000000
1.85  0.000000  0.000000  0.000000  -34.58382868643124  5.054486988784012  18.82284108930769  71.45928978782325  11.482812167436707  -4.338660590850677  -2.324269060961527  54.335485957697934  -13.891178127106079  23.933244189604753  120.000000
1.875  0.000000  0.000000  0.000000  -34.34560240737649  4.75332521372701  18.150489995898038  71.53484607934321  11.35404420438755  -4.524532683362934  -1.9605443358475787  53.33904404039626  -13.367032526395283  23.98167968419948  120.000000
1.9000000000000001  0.000000  0.000000  0.000000  -34.097544629366894  4.434684442140907  17.43080463837298  71.602069776962  11.223733868140094  -4.704550118616147  -1.5848533348328864  52.324301087914755  -12.79419415685537  24.002984183980626  120.000000
1.925  0.000000  0.000000  0.000000  -33.83993721428005  4.10072138404766  16.668334974168303  71.65450866536429  11.091501502923409  -4.878354100739557  -1.199928285309745  51.29846207443109  -12.16513683264132  23.995395367918757  120.000000
1.9500000000000002  0.000000  0.000000  0.000000  -33.57297622910136  3.7542522825431965  15.868713717893076  71.68577016337342  10.957051885256483  -5.04543651151271  -0.8083231981480211  50.26784617227076  -11.474131823214272  23.959023622907043  120.000000
1.975  0.000000  0.000000  0.000000  -33.298087349181124  3.3985357500952236  15.039370699179765  71.69031481289655  10.820069248646758  -5.205226163017183  -0.41204673662199737  49.23710584395308  -10.718970866856052  23.895691065689373  120.000000
2.0  0.000000  0.000000  0.000000  -33.01701536341505  3.037102593867813  14.188320050666157  71.66384896641208  10.680279024911826  -5.357112282594063  -0.012242944717732756  48.210024887047034  -9.90283091283684  23.809032781487197  120.000000
2.025  0.000000  0.000000  0.000000  -32.73300497353566  2.67342967368291  13.324514241719502  71.60370852178896  10.53742168929797  -5.500594201229175  0.39105294650841754  47.18927773885101  -9.034365880337802  23.704331638180296  120.000000
2.0500000000000003  0.000000  0.000000  0.000000  -32.44943088398012  2.31107658524896  12.456677824601776  71.50861798174482  10.39122184159861  -5.635248379398165  0.7990012956727253  46.1773737520217  -8.127231741589076  23.588237457142835  120.000000
2.075  0.000000  0.000000  0.000000  -32.170447009266795  1.9533616633966167  11.593417258994968  71.37856206248907  10.24138261105912  -5.7608959237316  1.2136972240211057  45.17672839084085  -7.197524813344786  23.46813219407907  120.000000
2.1  0.000000  0.000000  0.000000  -31.899066724205493  1.6036518937237765  10.742435560625411  71.21412803553223  10.08748770690677  -5.877454970093777  1.6377037102115972  44.19029096712324  -6.261512062487329  23.351502004056353  120.000000
2.125  0.000000  0.000000  0.000000  -31.63755746988931  1.26498681799217  9.910717455106605  71.01648138584778  9.92913443654971  -5.985281162749275  2.0733138056513054  43.22143914702276  -5.332567519993156  23.245315862620764  120.000000
2.15  0.000000  0.000000  0.000000  -31.385744356173742  0.9403052553725585  9.104382563227944  70.78674989558645  9.765883865215018  -6.0848016177349225  2.5220111550870135  42.27396822346722  -4.419742668303581  23.155591141961715  120.000000
2.1750000000000003  0.000000  0.000000  0.000000  -31.142412411750705  0.6318194456319428  8.329261153504449  70.52601105734381  9.597827909442525  -6.176962318226156  2.9835413024163615  41.35173414733441  -3.526622141199678  23.087144430495457  120.000000
2.2  0.000000  0.000000  0.000000  -30.904719178093405  0.3425475747843723  7.590894610360921  70.2353722968527  9.42543255379678  -6.263769849730901  3.455844647828453  40.45820212142165  -2.6524173312019443  23.043497697762433  120.000000
2.225  0.000000  0.000000  0.000000  -30.66976550346223  0.07486907934502318  6.89486222562573  69.91641427802384  9.249822290639795  -6.348319928553701  3.9355600424198562  39.59571394461145  -1.793397918515353  23.02682486514727  120.000000
2.25  0.000000  0.000000  0.000000  -30.433731594507535  -0.16939488314467052  6.2466321265119635  69.5708516167595  9.072214741373855  -6.433868771723423  4.4195781765207105  38.76463499033508  -0.9457133560436468  23.037819910388514  120.000000
2.275  0.000000  0.000000  0.000000  -30.19362814174269  -0.3895646215122917  5.65120333960692  69.20142214576087  8.89409023332394  -6.524057836890357  4.9062442802390684  37.96301808390606  -0.10717218176513237  23.075775825393347  120.000000
2.3000000000000003  0.000000  0.000000  0.000000  -29.94603437820671  -0.5853654873482729  5.112798664155859  68.81211409883008  8.716755067681047  -6.621950306901774  5.397733394553904  37.18643053579925  0.7201684381690197  23.139055511882123  120.000000
2.325  0.000000  0.000000  0.000000  -29.688553978860938  -0.757598613153993  4.6335805033735005  68.40906690888788  8.541274005589017  -6.730421011664287  5.9006094583538164  36.42796633393372  1.5298540311618496  23.22561311014116  120.000000
2.35  0.000000  0.000000  0.000000  -29.41891126382196  -0.9082436873083695  4.212880305690236  67.99906961987931  8.36743006589202  -6.851570693557668  6.424653664567452  35.67772695954268  2.3122353697814235  23.333301362557677  120.000000
2.375  0.000000  0.000000  0.000000  -29.13657481492358  -1.041878322357295  3.8464172579121976  67.58947894530635  8.192892465164915  -6.986152662046813  6.981762574284587  34.92343484422624  3.0561779525983264  23.460341917503236  120.000000
2.4000000000000004  0.000000  0.000000  0.000000  -28.84064999010766  -1.1647028893818405  3.5253008003308848  67.1878230742987  8.011984641345107  -7.132781884770476  7.586281305104106  34.15125409517646  3.749043448391719  23.6061052381286  120.000000
2.4250000000000003  0.000000  0.000000  0.000000  -28.530218643803344  -1.28543154142711  3.2348061389449203  66.8023900974227  7.815480579710379  -7.288332378835825  8.254046933493713  33.347294569786776  4.378029574041536  23.771466551371955  120.000000
